<mxfile host="app.diagrams.net" modified="2022-05-04T14:31:17.404Z" agent="5.0 (Macintosh)" etag="Ky8LNABN99qJUYtrE18d" version="16.4.5" type="github">
  <diagram id="tbl310v2u9fYnJmufLMh" name="Page-1">
    <mxGraphModel dx="852" dy="689" grid="1" gridSize="10" guides="1" tooltips="1" connect="1" arrows="1" fold="1" page="1" pageScale="1" pageWidth="850" pageHeight="1100" math="0" shadow="0">
      <root>
        <mxCell id="0" />
        <mxCell id="1" parent="0" />
        <mxCell id="3C8uNp0iocg1anjiTqil-1" value="&lt;div&gt;Controller&lt;/div&gt;" style="text;html=1;resizable=0;autosize=1;align=center;verticalAlign=middle;points=[];fillColor=none;strokeColor=none;rounded=0;" parent="1" vertex="1">
          <mxGeometry x="70" y="60" width="70" height="20" as="geometry" />
        </mxCell>
        <mxCell id="3C8uNp0iocg1anjiTqil-2" value="&lt;div&gt;Model/Storage&lt;/div&gt;" style="text;html=1;resizable=0;autosize=1;align=center;verticalAlign=middle;points=[];fillColor=none;strokeColor=none;rounded=0;" parent="1" vertex="1">
          <mxGeometry x="690" y="60" width="90" height="20" as="geometry" />
        </mxCell>
        <mxCell id="3C8uNp0iocg1anjiTqil-3" value="&lt;div&gt;UI&lt;/div&gt;" style="text;html=1;resizable=0;autosize=1;align=center;verticalAlign=middle;points=[];fillColor=none;strokeColor=none;rounded=0;" parent="1" vertex="1">
          <mxGeometry x="410" y="60" width="30" height="20" as="geometry" />
        </mxCell>
        <mxCell id="3C8uNp0iocg1anjiTqil-4" value="&lt;div&gt;playerAction()&lt;/div&gt;" style="rounded=0;whiteSpace=wrap;html=1;shadow=1;strokeColor=#FFE599;fillColor=#FFE599;" parent="1" vertex="1">
          <mxGeometry x="45" y="110" width="120" height="30" as="geometry" />
        </mxCell>
        <mxCell id="eTiTghomsZwvz0lO_ERC-16" style="edgeStyle=orthogonalEdgeStyle;rounded=0;orthogonalLoop=1;jettySize=auto;html=1;exitX=0.5;exitY=1;exitDx=0;exitDy=0;" edge="1" parent="1" source="3C8uNp0iocg1anjiTqil-5" target="3C8uNp0iocg1anjiTqil-17">
          <mxGeometry relative="1" as="geometry" />
        </mxCell>
        <mxCell id="3C8uNp0iocg1anjiTqil-5" value="renderTile()" style="rounded=0;whiteSpace=wrap;html=1;shadow=1;strokeColor=#FFE599;fillColor=#B9E0A5;" parent="1" vertex="1">
          <mxGeometry x="370" y="110" width="120" height="30" as="geometry" />
        </mxCell>
        <mxCell id="3C8uNp0iocg1anjiTqil-6" value="&lt;div&gt;gameBoard {}&lt;br&gt;&lt;/div&gt;" style="rounded=0;whiteSpace=wrap;html=1;shadow=1;strokeColor=#FFE599;fillColor=#C3ABD0;" parent="1" vertex="1">
          <mxGeometry x="675" y="110" width="120" height="30" as="geometry" />
        </mxCell>
        <mxCell id="3C8uNp0iocg1anjiTqil-9" value="" style="endArrow=classic;html=1;rounded=0;exitX=1;exitY=0.5;exitDx=0;exitDy=0;entryX=0;entryY=0.5;entryDx=0;entryDy=0;" parent="1" source="3C8uNp0iocg1anjiTqil-4" target="3C8uNp0iocg1anjiTqil-5" edge="1">
          <mxGeometry width="50" height="50" relative="1" as="geometry">
            <mxPoint x="470" y="270" as="sourcePoint" />
            <mxPoint x="520" y="220" as="targetPoint" />
            <Array as="points" />
          </mxGeometry>
        </mxCell>
        <mxCell id="3C8uNp0iocg1anjiTqil-11" value="Game State" style="swimlane;horizontal=0;shadow=1;strokeColor=#FFE599;fillColor=#C3ABD0;" parent="1" vertex="1">
          <mxGeometry x="635" y="160" width="200" height="210" as="geometry" />
        </mxCell>
        <mxCell id="3C8uNp0iocg1anjiTqil-12" value="&lt;div align=&quot;left&quot;&gt;_roundWon = false;&lt;/div&gt;&lt;div align=&quot;left&quot;&gt;_moves = 0&lt;/div&gt;&lt;div align=&quot;left&quot;&gt;_roundTie = false&lt;/div&gt;&lt;div align=&quot;left&quot;&gt;_isGameActive = true&lt;/div&gt;&lt;div align=&quot;left&quot;&gt;_board = [...]&lt;/div&gt;&lt;div align=&quot;left&quot;&gt;_player1 = X&lt;/div&gt;&lt;div align=&quot;left&quot;&gt;_player 2 = O&lt;/div&gt;&lt;div align=&quot;left&quot;&gt;_currentPlayer = _player1&lt;/div&gt;&lt;div align=&quot;left&quot;&gt;_player1Score = 0&lt;/div&gt;&lt;div align=&quot;left&quot;&gt;_player2Score = 0&lt;/div&gt;&lt;div align=&quot;left&quot;&gt;_winningConditions = [...]&lt;br&gt;&lt;/div&gt;&lt;div align=&quot;left&quot;&gt;&lt;br&gt;&lt;/div&gt;&lt;div align=&quot;left&quot;&gt;&lt;br&gt;&lt;/div&gt;" style="text;html=1;align=left;verticalAlign=middle;resizable=0;points=[];autosize=1;strokeColor=none;fillColor=none;" parent="3C8uNp0iocg1anjiTqil-11" vertex="1">
          <mxGeometry x="40" y="20" width="150" height="190" as="geometry" />
        </mxCell>
        <mxCell id="3C8uNp0iocg1anjiTqil-32" style="edgeStyle=orthogonalEdgeStyle;rounded=0;orthogonalLoop=1;jettySize=auto;html=1;exitX=0.5;exitY=1;exitDx=0;exitDy=0;entryX=0.5;entryY=0;entryDx=0;entryDy=0;" parent="1" source="3C8uNp0iocg1anjiTqil-17" target="3C8uNp0iocg1anjiTqil-31" edge="1">
          <mxGeometry relative="1" as="geometry" />
        </mxCell>
        <mxCell id="eTiTghomsZwvz0lO_ERC-14" style="edgeStyle=orthogonalEdgeStyle;rounded=0;orthogonalLoop=1;jettySize=auto;html=1;exitX=0;exitY=0.5;exitDx=0;exitDy=0;entryX=1;entryY=0.5;entryDx=0;entryDy=0;" edge="1" parent="1" source="3C8uNp0iocg1anjiTqil-17" target="3C8uNp0iocg1anjiTqil-25">
          <mxGeometry relative="1" as="geometry" />
        </mxCell>
        <mxCell id="3C8uNp0iocg1anjiTqil-17" value="&lt;div&gt;Game Over&lt;/div&gt;&lt;div&gt;or Draw?&lt;br&gt;&lt;/div&gt;" style="rhombus;whiteSpace=wrap;html=1;shadow=1;strokeColor=#FFE599;fillColor=#B9E0A5;" parent="1" vertex="1">
          <mxGeometry x="390" y="200" width="80" height="80" as="geometry" />
        </mxCell>
        <mxCell id="eTiTghomsZwvz0lO_ERC-15" style="edgeStyle=orthogonalEdgeStyle;rounded=0;orthogonalLoop=1;jettySize=auto;html=1;exitX=0;exitY=0.5;exitDx=0;exitDy=0;entryX=1;entryY=0.5;entryDx=0;entryDy=0;" edge="1" parent="1" source="3C8uNp0iocg1anjiTqil-25" target="eTiTghomsZwvz0lO_ERC-2">
          <mxGeometry relative="1" as="geometry" />
        </mxCell>
        <mxCell id="3C8uNp0iocg1anjiTqil-25" value="Render Tile" style="rounded=1;whiteSpace=wrap;html=1;shadow=1;strokeColor=#FFE599;fillColor=#B9E0A5;" parent="1" vertex="1">
          <mxGeometry x="270" y="230" width="70" height="20" as="geometry" />
        </mxCell>
        <mxCell id="3C8uNp0iocg1anjiTqil-31" value="Return" style="rounded=1;whiteSpace=wrap;html=1;shadow=1;strokeColor=#FFE599;fillColor=#B9E0A5;" parent="1" vertex="1">
          <mxGeometry x="400" y="320" width="60" height="20" as="geometry" />
        </mxCell>
        <mxCell id="eTiTghomsZwvz0lO_ERC-10" style="edgeStyle=orthogonalEdgeStyle;rounded=0;orthogonalLoop=1;jettySize=auto;html=1;entryX=0.5;entryY=0;entryDx=0;entryDy=0;" edge="1" parent="1" source="eTiTghomsZwvz0lO_ERC-2" target="eTiTghomsZwvz0lO_ERC-8">
          <mxGeometry relative="1" as="geometry" />
        </mxCell>
        <mxCell id="eTiTghomsZwvz0lO_ERC-18" style="edgeStyle=orthogonalEdgeStyle;rounded=0;orthogonalLoop=1;jettySize=auto;html=1;exitX=1;exitY=0.25;exitDx=0;exitDy=0;shape=link;" edge="1" parent="1" source="eTiTghomsZwvz0lO_ERC-2">
          <mxGeometry relative="1" as="geometry">
            <mxPoint x="630" y="165" as="targetPoint" />
          </mxGeometry>
        </mxCell>
        <mxCell id="eTiTghomsZwvz0lO_ERC-2" value="addPlayerScore" style="rounded=1;whiteSpace=wrap;html=1;shadow=0;strokeColor=#FFE599;fillColor=#E1D5E7;" vertex="1" parent="1">
          <mxGeometry x="60" y="160" width="90" height="20" as="geometry" />
        </mxCell>
        <mxCell id="eTiTghomsZwvz0lO_ERC-12" value="" style="edgeStyle=orthogonalEdgeStyle;rounded=0;orthogonalLoop=1;jettySize=auto;html=1;" edge="1" parent="1" source="eTiTghomsZwvz0lO_ERC-8" target="eTiTghomsZwvz0lO_ERC-11">
          <mxGeometry relative="1" as="geometry" />
        </mxCell>
        <mxCell id="eTiTghomsZwvz0lO_ERC-22" style="rounded=0;orthogonalLoop=1;jettySize=auto;html=1;exitX=1;exitY=0.5;exitDx=0;exitDy=0;entryX=0;entryY=0.5;entryDx=0;entryDy=0;edgeStyle=orthogonalEdgeStyle;" edge="1" parent="1" source="eTiTghomsZwvz0lO_ERC-8" target="eTiTghomsZwvz0lO_ERC-21">
          <mxGeometry relative="1" as="geometry" />
        </mxCell>
        <mxCell id="eTiTghomsZwvz0lO_ERC-25" style="edgeStyle=orthogonalEdgeStyle;rounded=0;orthogonalLoop=1;jettySize=auto;html=1;exitX=1;exitY=0.5;exitDx=0;exitDy=0;entryX=0;entryY=0.5;entryDx=0;entryDy=0;elbow=vertical;" edge="1" parent="1" source="eTiTghomsZwvz0lO_ERC-8" target="eTiTghomsZwvz0lO_ERC-23">
          <mxGeometry relative="1" as="geometry" />
        </mxCell>
        <mxCell id="eTiTghomsZwvz0lO_ERC-8" value="switchPlayers" style="rounded=1;whiteSpace=wrap;html=1;shadow=0;strokeColor=#FFE599;fillColor=#E1D5E7;" vertex="1" parent="1">
          <mxGeometry x="60" y="190" width="90" height="20" as="geometry" />
        </mxCell>
        <mxCell id="eTiTghomsZwvz0lO_ERC-11" value="renderScoreBoard" style="whiteSpace=wrap;html=1;fillColor=#E1D5E7;strokeColor=#FFE599;rounded=1;shadow=0;" vertex="1" parent="1">
          <mxGeometry x="60" y="220" width="90" height="20" as="geometry" />
        </mxCell>
        <mxCell id="eTiTghomsZwvz0lO_ERC-20" value="updating _moves" style="text;html=1;resizable=0;autosize=1;align=center;verticalAlign=middle;points=[];fillColor=none;strokeColor=none;rounded=0;shadow=0;" vertex="1" parent="1">
          <mxGeometry x="520" y="170" width="110" height="20" as="geometry" />
        </mxCell>
        <mxCell id="eTiTghomsZwvz0lO_ERC-21" value="renderTurnAnnouncer()" style="rounded=0;whiteSpace=wrap;html=1;shadow=0;strokeColor=#FFE599;fillColor=#B9E0A5;" vertex="1" parent="1">
          <mxGeometry x="370" y="410" width="140" height="30" as="geometry" />
        </mxCell>
        <mxCell id="eTiTghomsZwvz0lO_ERC-23" value="resetAnnouncerColor()" style="rounded=0;whiteSpace=wrap;html=1;shadow=0;strokeColor=#FFE599;fillColor=#B9E0A5;" vertex="1" parent="1">
          <mxGeometry x="370" y="380" width="140" height="30" as="geometry" />
        </mxCell>
      </root>
    </mxGraphModel>
  </diagram>
</mxfile>
